<svg xmlns="http://www.w3.org/2000/svg" width="1280" height="420" viewBox="0 0 1280 420" role="img" aria-labelledby="title desc">
<title id="title">Still — Step away. Keep the momentum.</title><desc id="desc">Still's warm porcelain and burgundy identity, with light and dark appearance swatches.</desc>
<rect width="1280" height="420" rx="20" fill="#F4EFEB"/>
<path d="M930 0h330a20 20 0 0 1 20 20v380a20 20 0 0 1-20 20H930z" fill="#20171B"/>
<g fill="#702C43"><rect x="80" y="73" width="5" height="32" rx="2"/><rect x="94" y="73" width="5" height="32" rx="2"/></g>
<path fill="#702C43" d="M110.36 256.485Q107.06 256.485 103.0175 255.825Q98.975 255.165 95.4275 254.175Q91.88 253.185 89.9 252.03Q88.745 251.37 88.1675 250.6275Q87.59 249.885 87.59 248.07L86.765 222.165Q86.765 218.865 88.91 218.865Q90.725 218.865 91.385 221.835L92.87 228.105Q98.48 251.7 113.825 251.7Q122.075 251.7 126.9425 246.1725Q131.81 240.645 131.81 230.57999999999998Q131.81 220.845 126.7775 212.43Q121.745 204.015 110.69 195.765Q98.48 187.01999999999998 92.87 178.8525Q87.26 170.685 87.26 161.445Q87.26 149.235 95.7575 141.8925Q104.255 134.55 117.455 134.55Q122.405 134.55 127.025 135.705Q131.645 136.86 134.615 139.005Q135.60500000000002 139.665 136.1825 140.49Q136.76 141.315 136.76 142.635L137.255 167.55Q137.255 170.355 135.11 170.355Q133.625 170.355 132.965 168.04500000000002L131.81 163.92000000000002Q128.18 151.21499999999997 124.30250000000001 145.3575Q120.42500000000001 139.5 113.16499999999999 139.5Q106.07 139.5 101.8625 144.12Q97.655 148.74 97.655 157.155Q97.655 164.25 102.275 170.685Q106.895 177.12 118.445 186.36Q130.82 196.425 136.5125 205.7475Q142.205 215.07 142.205 225.63Q142.205 234.87 138.08 241.8Q133.955 248.73 126.7775 252.60750000000002Q119.6 256.485 110.36 256.485Z M171.41 256.485Q165.635 256.485 161.9225 252.4425Q158.21 248.4 158.21 239.16V177.45Q158.21 175.47 156.23 175.47H151.445Q148.805 175.47 148.805 173.49Q148.805 172.17000000000002 150.29 171.18Q155.735 167.385 159.03500000000003 163.0125Q162.335 158.64 164.81 151.05Q165.965 147.58499999999998 167.615 147.58499999999998Q169.43 147.58499999999998 169.43 150.225V168.54Q169.43 170.85 171.74 170.85H182.465Q185.10500000000002 170.85 185.10500000000002 173.16Q185.10500000000002 175.47 182.465 175.47H171.74Q169.43 175.47 169.43 177.78V239.325Q169.43 242.955 170.585 245.0175Q171.74 247.08 174.875 247.08Q178.34 247.08 180.5675 243.615Q182.79500000000002 240.15 183.455 232.395Q183.785 230.085 185.6 230.085Q187.58 230.085 187.58 232.56Q187.085 245.265 182.3825 250.875Q177.68 256.485 171.41 256.485Z M208.7 155.175Q205.23499999999999 155.175 202.84249999999997 152.7Q200.45 150.225 200.45 146.43Q200.45 142.635 202.84249999999997 140.2425Q205.23499999999999 137.85 208.7 137.85Q212.165 137.85 214.475 140.2425Q216.785 142.635 216.785 146.43Q216.785 150.225 214.475 152.7Q212.165 155.175 208.7 155.175ZM194.83999999999997 255.0Q192.36499999999998 255.0 192.36499999999998 253.185Q192.36499999999998 251.7 194.51 251.205L196.48999999999998 250.875Q200.61499999999998 250.215 201.76999999999998 248.8125Q202.92499999999998 247.41 202.92499999999998 243.945V188.505Q202.92499999999998 185.535 202.01749999999998 184.46249999999998Q201.10999999999999 183.39 198.79999999999998 183.06L195.33499999999998 182.565Q193.19 182.39999999999998 193.19 180.75Q193.19 179.43 195.82999999999998 178.935Q200.945 178.11 204.07999999999998 176.29500000000002Q207.21499999999997 174.48 210.185 171.83999999999997Q211.67 170.355 212.66 170.355Q214.14499999999998 170.355 214.14499999999998 172.33499999999998V243.945Q214.14499999999998 247.41 215.135 248.89499999999998Q216.125 250.38 218.92999999999998 250.71L223.05499999999998 251.205Q224.87 251.535 224.87 253.02Q224.87 255.0 222.39499999999998 255.0Z M229.985 255.0Q228.005 255.0 228.005 253.185Q228.005 251.535 229.82 251.205L232.13 250.875Q235.595 250.38 237.245 248.89499999999998Q238.895 247.41 238.895 243.945V149.39999999999998Q238.895 146.43 237.9875 145.275Q237.08 144.12 234.77 143.95499999999998L230.975 143.45999999999998Q229.16 143.13 229.16 141.48Q229.16 139.82999999999998 230.975 139.5Q235.595 138.51 238.89499999999998 137.19Q242.195 135.87 244.34 134.55Q246.98000000000002 132.89999999999998 248.3 132.89999999999998Q250.115 132.89999999999998 250.115 135.54V243.945Q250.115 247.41 251.1875 248.8125Q252.26 250.215 255.725 250.71L259.52 251.205Q261.335 251.535 261.335 253.185Q261.335 255.0 259.355 255.0Z M266.285 255.0Q264.305 255.0 264.305 253.185Q264.305 251.535 266.12 251.205L268.43 250.875Q271.89500000000004 250.38 273.545 248.89499999999998Q275.195 247.41 275.195 243.945V149.39999999999998Q275.195 146.43 274.2875 145.275Q273.38 144.12 271.07 143.95499999999998L267.27500000000003 143.45999999999998Q265.46000000000004 143.13 265.46000000000004 141.48Q265.46000000000004 139.82999999999998 267.27500000000003 139.5Q271.89500000000004 138.51 275.19500000000005 137.19Q278.495 135.87 280.64 134.55Q283.28000000000003 132.89999999999998 284.6 132.89999999999998Q286.415 132.89999999999998 286.415 135.54V243.945Q286.415 247.41 287.4875 248.8125Q288.56 250.215 292.02500000000003 250.71L295.82 251.205Q297.635 251.535 297.635 253.185Q297.635 255.0 295.65500000000003 255.0Z"/>
<text x="88" y="306" font-family="-apple-system,BlinkMacSystemFont,Arial,sans-serif" font-size="22" fill="#74646A">Step away. Keep the momentum.</text>
<text x="89" y="366" font-family="Arial,sans-serif" font-size="11" letter-spacing="3" fill="#74646A">NATIVE MAC APP · PORCELAIN · IN DEVELOPMENT</text>
<g transform="translate(985 114)"><rect width="190" height="192" rx="12" fill="#302229" stroke="#654B56"/><text x="22" y="34" font-family="Arial,sans-serif" font-size="10" letter-spacing="2" fill="#C5B0B8">PORCELAIN DARK</text><text x="22" y="108" font-family="Georgia,serif" font-size="52" fill="#F3E9E6">16:42</text><rect x="22" y="136" width="99" height="29" rx="15" fill="#D9A8B8"/><text x="40" y="154" font-family="Arial,sans-serif" font-size="9" fill="#321E26">Return to desktop</text></g>
</svg>
